Patient4_TMGait_0pt4_02_right_25_EMG.mot
version=1
nRows=26
nColumns=33
inDegrees=no
endheader
time	1LAddLong	2LGlutMax	3LGlutMed	4LIliopsoas	5LSemiMemb	6LBicFemLong	7LRecFem	8LVastMed	9LVastLat	10LGasMed	11LTibAnt	12lTibPost	13LPeroneusLong	14LSol	15LExtDigLong	16LFlexDigLong	17RAddLong	18RGlutMax	19RGlutMed	20RIliopsoas	21RSemiMemb	22RBicFemLong	23RRecFem	24RVastMed	25RVastLat	26RGasMed	27RTibAnt	28RTibPost	29RPeroneusLong	30RSol	31RExtDigLong	32RFlexDigLong
32.89	0.006409	-0.23483	-0.059052	0.000305	0.007172	-0.13214	-0.016632	0.023041	0.20996	0.017548	-0.047455	0.019989	0.032043	0.029144	-0.35248	-0.022736	0.006561	-0.028534	0.090179	0.27725	0.015259	-0.034027	0.18219	-0.072937	0.027161	-0.006256	0.13779	0.00351	0.032654	-0.039673	-0.000763	-0.033264
32.891	-0.000916	-0.2562	-0.12375	0.006256	-0.010376	-0.051117	0.009308	0.010223	0.13031	0.02121	0.049744	0.00824	0.046692	-0.046997	-0.29312	-0.019836	0.038757	-0.024109	0.14679	0.20691	-0.005493	-0.03006	0.20157	-0.089569	0.038452	-0.002747	0.19272	0.001068	-0.18646	-0.04364	-0.00473	-0.022125
32.892	0.005951	-0.20401	-0.055237	0.025482	-0.012207	-0.042419	0.019836	-0.004425	0.066376	0.010529	0.17746	0.008545	0.040436	-0.056305	-0.096893	-0.006561	0.029144	-0.049286	0.21072	0.14206	-0.001984	-0.021973	0.090637	-0.10986	0.016785	0.005188	0.14374	0.000763	-0.27679	-0.003204	-0.006104	-0.02594
32.893	0.000305	-0.20889	-0.040283	0.010071	0.03006	-0.011749	0.041199	-0.014496	-0.17532	0.011902	0.098572	0.017853	-0.043182	0.001831	-0.061188	-0.01236	0.024567	0.011902	0.15182	0.071106	-0.017548	-0.044708	0.098114	-0.10544	0.014191	0.006866	0.014954	0.000916	-0.070801	-0.009918	-0.000458	-0.016174
32.894	0.001984	-0.11246	0.068359	0.006714	0.018311	0.047302	0.01709	-0.028534	-0.22705	-0.00351	0.059204	0.01236	0.16129	0.094757	0.0737	0.009155	-0.007935	0.002899	0.13534	-0.11429	0.005188	-0.036469	0.13214	-0.10223	0.020294	0.012054	0.076294	0.000763	0.30472	-0.016785	-0.001526	-0.011444
32.895	0.005493	-0.076447	0.11139	-0.007629	0.035095	0.072174	0.018005	-0.025482	-0.094452	-0.000916	0.054474	0.021362	0.21805	0.10315	0.73547	-0.000916	-0.003204	0.008698	-0.063629	-0.24765	-0.023956	-0.048218	0.13809	-0.071869	0.02655	0.019531	0.25391	0.002136	0.26077	-0.034027	-0.002899	-0.012207
32.896	0.005646	-0.12299	-0.031738	-0.00473	0.020294	0.059357	0.015411	-0.014648	-0.052032	0.005035	-0.069275	0.00946	-0.041199	0.11139	0.30548	0.008698	-0.011749	0.014954	-0.020447	-0.27054	-0.007019	-0.016327	0.085602	-0.082855	0.02533	0.022888	0.53696	0.00412	0.093689	-0.047302	-0.002441	-0.011749
32.897	0.006104	-0.15457	-0.066833	0.00824	-0.000916	0.019684	0.010376	-0.005646	-0.022888	-0.018311	-0.19486	0.022125	-0.11795	0.081482	-0.12634	0.002594	-0.039825	0.029449	0.050201	-0.21774	-0.010986	-0.048523	0.039063	-0.092163	0.01709	0.018616	0.61584	0.000916	0.041504	-0.050507	-0.003357	-0.00946
32.898	0.003052	-0.17548	0.062561	0.009613	-0.028992	0.051727	0.008545	0.000916	-0.020142	-0.014038	-0.098419	-0.012665	0.074158	0.010071	-0.030365	0.005341	-0.045471	0.041199	0.2388	-0.17639	-0.009003	-0.037842	-0.003357	-0.056915	0.033722	0.008545	0.74509	0.004883	-0.0737	-0.046997	-0.002594	-0.009766
32.899	0.002289	-0.16983	-0.05127	-0.014496	-0.026398	0.03891	0.002594	-0.00061	-0.023193	0.007019	-0.092468	-0.007172	-0.033417	-0.078278	0.20676	-0.010681	-0.050049	-0.020142	0.13412	-0.11444	-0.016632	-0.037537	0.05127	-0.018768	0.042572	0.0177	0.018311	0.001678	-0.060883	-0.075989	-0.003357	-0.001831
32.9	0.007477	-0.1767	-0.1741	0.011902	0.005035	0.017242	-0.002899	-0.000305	0.004425	-0.009003	-0.14771	-0.009003	-0.039825	-0.02533	0.23468	-0.009766	-0.058899	0.012817	0.006104	-0.095673	-0.016327	-0.040894	0.055237	0.009308	0.019073	0.02243	-0.74646	-0.000153	0.082855	-0.097198	-0.004883	0.00351
32.901	0.008698	-0.17258	-0.13657	0.002899	0.037231	0.018311	-0.008545	-0.006256	0.014191	0.005798	-0.097809	-0.016937	-0.067444	-0.025177	-0.31342	0.010071	-0.036621	0.021057	0.21149	-0.064697	-0.000916	-0.040131	-0.078735	-0.010834	0.023346	0.030975	-0.73669	0.00351	0.22873	-0.10101	-0.002441	0.005951
32.902	0.006104	-0.20065	-0.015106	-0.002899	0.018005	0.030365	0.01297	-0.002594	0.002747	0.02594	-0.027771	-0.007172	-0.070648	-0.001068	-0.23346	0.014038	-0.036163	-0.018005	0.12161	-0.083466	0.011292	-0.050049	-0.12604	-0.014496	0.025787	0.025482	-0.52292	0.001373	0.30731	-0.11078	-0.00061	0.001831
32.903	0.007324	-0.15961	0.031281	-0.004578	0.03006	0.028839	0.036469	-0.001678	-0.000305	0.036316	-0.025787	-0.003357	-0.015259	-0.002899	-0.26657	0.017242	-0.011749	0.02243	-0.32089	-0.019836	0.014954	-0.028076	-0.11139	-0.056	0.031433	0.021515	-0.036469	-0.002441	0.17136	-0.03479	-0.003052	0.00412
32.904	0.009155	-0.14648	0.039063	-0.001831	0.043945	0.054626	0.035553	0.001068	-0.003662	0.093384	-0.032806	-0.005951	-0.000153	0.039825	-0.28336	0.049133	0.022583	0.026703	-0.30579	0.048523	0.010834	-0.037537	-0.078583	-0.04364	0.037842	0.017395	0.2272	0.000458	-0.025177	0.016632	-0.004883	-0.000153
32.905	0.013123	-0.097504	0.048676	-0.007172	0.027771	-0.11139	0.043793	0.001678	0.015717	0.097809	-0.013733	0.002594	0.012207	-0.04837	-0.17303	0.038605	0.016479	-0.000153	0.043945	0.14023	-0.005951	-0.037231	-0.058289	-0.074768	0.028534	0.013733	0.26077	0.001678	0.012512	0	-0.001068	-0.005341
32.906	-0.002136	-0.10773	0.005188	0.012054	0.019684	-0.096741	0.039825	0.002441	0.012665	0.069427	-0.054474	0.009308	-0.002136	-0.095215	0.003815	-0.56015	0.00946	-0.02594	0.5867	0.14847	0.007935	-0.045319	-0.060577	-0.068054	0.046234	0.014954	-0.094452	0.001068	0.23468	-0.048676	-0.003204	0.001068
32.907	0.002289	-0.10391	0.009308	0.015259	0.015564	0.000305	0.055084	0.003662	-0.010223	0.05127	-0.095062	0.012665	-0.050507	-0.054169	0.15945	0.075531	0.010529	-0.048523	0.21103	0.089569	-0.010071	-0.039368	0.001068	-0.11276	0.032043	0.012054	-0.71671	-0.001373	0.041809	-0.083313	-0.001831	0.001221
32.908	0.006561	-0.076447	0.04776	0.018158	0.015106	0.08316	0.007172	0.002136	0.023346	-0.00061	-0.067444	0.048828	-0.021057	-0.063477	0.23102	0.09903	0.010376	-0.069275	0.48172	-0.010223	-0.015411	-0.056763	0.16663	-0.076447	0.025482	-0.004578	-0.52048	0.001221	-0.054474	-0.089569	0	-0.00061
32.909	0.008087	-0.079346	0.15625	0.015259	0.010834	0.10376	-0.050049	0.008392	0.069122	-0.12909	-0.051727	-0.003052	-0.027771	-0.050964	0.20432	0.037537	0.001526	-0.026703	0.50736	0.009308	0	-0.050201	0.16312	-0.10391	0.022125	-0.002899	-0.12253	0.002136	0.018616	-0.13489	-0.003357	0.003052
32.91	0.010834	-0.10529	0.14984	0.000916	0.011902	-0.081177	-0.11612	0.003052	0.087585	-0.076599	-0.059052	-0.010529	0.03418	0.030518	0.18127	0.034027	0.005493	-0.075836	-0.25101	0.074158	-0.011139	-0.052795	0.10757	-0.09613	0.025787	-0.000458	-0.031128	-0.002289	0.13473	-0.1265	-0.003052	0.000458
32.911	0.008545	-0.11459	0.11658	-0.004272	0.016479	-0.057678	-0.035095	0.001984	0.15579	0.017242	-0.033264	-0.006561	0.19043	-0.03418	0.12466	0.018311	0.001984	-0.075226	-0.33371	0.084229	-0.015411	-0.059204	0.14191	-0.068665	0.037842	-0.007782	-0.082092	-0.002441	0.19409	0.024719	-0.001373	0.00351
32.912	0.003815	-0.15533	-0.011902	0.009155	0.01358	-0.013275	0.019836	0.004883	0.08316	0.005188	-0.023499	-0.007172	-0.071411	0.007935	0.12344	0.01236	-0.00412	-0.11292	-0.24368	0.081329	-0.027313	-0.061493	0.10071	-0.087433	0.027618	-0.012207	-0.18341	-0.005798	0.17838	0.12955	-0.003967	0.00473
32.913	0.006714	-0.1152	0.011444	0.021515	0.014801	0.003815	0.030823	0.004578	-0.057831	0.03067	0.023956	-0.009003	0.53268	0.068054	0.023804	0.018311	-0.000153	-0.014191	-0.065155	0.091248	-0.013733	-0.041809	0.18692	-0.13275	0.015869	-0.018311	-0.16022	-0.002289	0.10925	0.15335	-0.004425	0
32.914	0.00473	-0.054474	0.056152	0.015869	0.01358	0.007629	-0.007782	0.000916	-0.15625	0.049591	0.067902	-0.001373	-0.06073	0.076599	-0.059357	0.000916	-0.010529	-0.022278	-0.015717	0.057068	-0.018616	-0.048065	0.22614	-0.13733	0.024261	-0.0177	-0.13794	-0.003052	0.20203	0.13504	-0.006104	0.000916
32.915	0.006866	-0.056458	0.007324	0.010681	0.014648	0	0.042877	0.000153	-0.055389	0.098114	0.055084	-0.003052	-0.49667	0.033112	-0.086823	0.001984	-0.003357	-0.028687	0.095978	-0.079498	-0.00351	-0.057068	0.30807	-0.087738	0.025024	-0.012512	-0.057983	-0.003662	0.27054	0.061188	-0.003357	0.006409
